<?xml version="1.0" encoding="UTF-8" standalone="no"?>
<svg
   xmlns:dc="http://purl.org/dc/elements/1.1/"
   xmlns:cc="http://creativecommons.org/ns#"
   xmlns:rdf="http://www.w3.org/1999/02/22-rdf-syntax-ns#"
   xmlns:svg="http://www.w3.org/2000/svg"
   xmlns="http://www.w3.org/2000/svg"
   xmlns:sodipodi="http://sodipodi.sourceforge.net/DTD/sodipodi-0.dtd"
   xmlns:inkscape="http://www.inkscape.org/namespaces/inkscape"
   viewBox="0.0 0.0 348.0 348.0"
   fill="none"
   version="1.1"
   id="svg1123"
   sodipodi:docname="14.svg"
   inkscape:version="0.92.4 (5da689c313, 2019-01-14)">
  <metadata
     id="metadata1129">
    <rdf:RDF>
      <cc:Work
         rdf:about="">
        <dc:format>image/svg+xml</dc:format>
        <dc:type
           rdf:resource="http://purl.org/dc/dcmitype/StillImage" />
        <dc:title></dc:title>
      </cc:Work>
    </rdf:RDF>
  </metadata>
  <defs
     id="defs1127" />
  <sodipodi:namedview
     pagecolor="#ffffff"
     bordercolor="#666666"
     borderopacity="1"
     objecttolerance="10"
     gridtolerance="10"
     guidetolerance="10"
     inkscape:pageopacity="0"
     inkscape:pageshadow="2"
     inkscape:window-width="1366"
     inkscape:window-height="705"
     id="namedview1125"
     showgrid="false"
     inkscape:snap-global="false"
     inkscape:zoom="1.3563218"
     inkscape:cx="174"
     inkscape:cy="174"
     inkscape:window-x="-8"
     inkscape:window-y="-8"
     inkscape:window-maximized="1"
     inkscape:current-layer="svg1123" />
  <path
     d="M5.079 5.776h336.913v337.67H5.08z"
     stroke-width="2"
     stroke="#000"
     id="path1119" />
  <path
     d="M282.734 40.554c0-8.376 6.966-15.165 15.56-15.165 4.126 0 8.084 1.597 11.001 4.441 2.918 2.844 4.558 6.702 4.558 10.724 0 8.376-6.966 15.165-15.56 15.165-8.593 0-15.559-6.79-15.559-15.165z"
     stroke-width="2"
     stroke="#000"
     id="path1121" />
  <rect
     style="opacity:1;fill:none;fill-opacity:1;stroke:#000000;stroke-width:2.32664442;stroke-miterlimit:4;stroke-dasharray:none;stroke-opacity:1"
     id="rect1674"
     width="212.74963"
     height="313.75812"
     x="17.120949"
     y="18.595526"
     ry="9.4311308e-06" />
  <rect
     style="opacity:1;fill:none;fill-opacity:1;stroke:#000000;stroke-width:2;stroke-miterlimit:4;stroke-dasharray:none;stroke-opacity:1"
     id="rect1676"
     width="76.677963"
     height="124.06756"
     x="246.25424"
     y="67.830505"
     ry="9.4311299e-06" />
  <rect
     style="opacity:1;fill:none;fill-opacity:1;stroke:#000000;stroke-width:2.07713628;stroke-miterlimit:4;stroke-dasharray:none;stroke-opacity:1"
     id="rect1678"
     width="77.33812"
     height="77.33812"
     x="245.7674"
     y="254.40298"
     ry="9.7948705e-06" />
  <path
     style="opacity:1;fill:none;fill-opacity:1;stroke:#000000;stroke-width:2;stroke-miterlimit:4;stroke-dasharray:none;stroke-opacity:1"
     id="path1680"
     sodipodi:type="arc"
     sodipodi:cx="283.11865"
     sodipodi:cy="223.3983"
     sodipodi:rx="26.542374"
     sodipodi:ry="26.542374"
     sodipodi:start="0"
     sodipodi:end="6.2733417"
     sodipodi:open="true"
     d="m 309.66103,223.3983 a 26.542374,26.542374 0 0 1 -26.47706,26.54229 26.542374,26.542374 0 0 1 -26.60737,-26.41165 26.542374,26.542374 0 0 1 26.3461,-26.67229 26.542374,26.542374 0 0 1 26.73704,26.28038" />
  <path
     style="opacity:1;fill:none;fill-opacity:1;stroke:#000000;stroke-width:2;stroke-miterlimit:4;stroke-dasharray:none;stroke-opacity:1"
     id="path1682"
     sodipodi:type="arc"
     sodipodi:cx="283.18106"
     sodipodi:cy="223.23593"
     sodipodi:rx="20.644068"
     sodipodi:ry="20.644068"
     sodipodi:start="0"
     sodipodi:end="6.2733417"
     sodipodi:open="true"
     d="m 303.82513,223.23593 a 20.644068,20.644068 0 0 1 -20.59327,20.64401 20.644068,20.644068 0 0 1 -20.69462,-20.5424 20.644068,20.644068 0 0 1 20.49141,-20.74511 20.644068,20.644068 0 0 1 20.79548,20.44029" />
  <path
     sodipodi:type="star"
     style="opacity:1;fill:none;fill-opacity:1;stroke:#000000;stroke-width:1.90933073;stroke-miterlimit:4;stroke-dasharray:none;stroke-opacity:1"
     id="path1684"
     sodipodi:sides="3"
     sodipodi:cx="284.61191"
     sodipodi:cy="86.54158"
     sodipodi:r1="17.024185"
     sodipodi:r2="8.5120926"
     sodipodi:arg1="-1.5707963"
     sodipodi:arg2="-0.52359878"
     inkscape:flatsided="true"
     inkscape:rounded="0"
     inkscape:randomized="0"
     d="m 284.61191,69.517395 14.74337,25.536278 -29.48675,-10e-7 z"
     inkscape:transform-center-y="-4.2560429"
     inkscape:transform-center-x="1.3977006e-05" />
  <path
     inkscape:transform-center-y="-4.2560511"
     d="m 263.69592,101.89511 14.74338,25.53628 -29.48675,0 z"
     inkscape:randomized="0"
     inkscape:rounded="0"
     inkscape:flatsided="true"
     sodipodi:arg2="-0.52359878"
     sodipodi:arg1="-1.5707963"
     sodipodi:r2="8.5120926"
     sodipodi:r1="17.024185"
     sodipodi:cy="118.9193"
     sodipodi:cx="263.69592"
     sodipodi:sides="3"
     id="path1686"
     style="opacity:1;fill:none;fill-opacity:1;stroke:#000000;stroke-width:1.90933073;stroke-miterlimit:4;stroke-dasharray:none;stroke-opacity:1"
     sodipodi:type="star"
     inkscape:transform-center-x="8.4984072e-06" />
  <path
     sodipodi:type="star"
     style="opacity:1;fill:none;fill-opacity:1;stroke:#000000;stroke-width:1.90933073;stroke-miterlimit:4;stroke-dasharray:none;stroke-opacity:1"
     id="path1688"
     sodipodi:sides="3"
     sodipodi:cx="305.22388"
     sodipodi:cy="118.9193"
     sodipodi:r1="17.024185"
     sodipodi:r2="8.5120926"
     sodipodi:arg1="-1.5707963"
     sodipodi:arg2="-0.52359878"
     inkscape:flatsided="true"
     inkscape:rounded="0"
     inkscape:randomized="0"
     d="m 305.22388,101.89511 14.74337,25.53628 -29.48675,0 z"
     inkscape:transform-center-y="-4.2560511"
     inkscape:transform-center-x="-2.3687044e-06" />
  <path
     inkscape:transform-center-y="-4.2560368"
     d="m 284.10797,134.27284 14.74338,25.53628 -29.48676,0 z"
     inkscape:randomized="0"
     inkscape:rounded="0"
     inkscape:flatsided="true"
     sodipodi:arg2="-0.52359878"
     sodipodi:arg1="-1.5707963"
     sodipodi:r2="8.5120926"
     sodipodi:r1="17.024185"
     sodipodi:cy="151.29703"
     sodipodi:cx="284.10797"
     sodipodi:sides="3"
     id="path1690"
     style="opacity:1;fill:none;fill-opacity:1;stroke:#000000;stroke-width:1.90933073;stroke-miterlimit:4;stroke-dasharray:none;stroke-opacity:1"
     sodipodi:type="star"
     inkscape:transform-center-x="-7.847303e-06" />
  <path
     inkscape:transform-center-x="-1.6961493e-05"
     inkscape:transform-center-y="4.2560417"
     d="m -284.61194,-125.56576 14.74338,25.53628 -29.48676,0 z"
     inkscape:randomized="0"
     inkscape:rounded="0"
     inkscape:flatsided="true"
     sodipodi:arg2="-0.52359878"
     sodipodi:arg1="-1.5707963"
     sodipodi:r2="8.5120926"
     sodipodi:r1="17.024185"
     sodipodi:cy="-108.54157"
     sodipodi:cx="-284.61194"
     sodipodi:sides="3"
     id="path1700"
     style="opacity:1;fill:none;fill-opacity:1;stroke:#000000;stroke-width:1.90933073;stroke-miterlimit:4;stroke-dasharray:none;stroke-opacity:1"
     sodipodi:type="star"
     transform="scale(-1)" />
  <path
     inkscape:transform-center-x="-2.2464227e-05"
     sodipodi:type="star"
     style="opacity:1;fill:none;fill-opacity:1;stroke:#000000;stroke-width:1.90933073;stroke-miterlimit:4;stroke-dasharray:none;stroke-opacity:1"
     id="path1702"
     sodipodi:sides="3"
     sodipodi:cx="-263.69595"
     sodipodi:cy="-140.9193"
     sodipodi:r1="17.024185"
     sodipodi:r2="8.5120926"
     sodipodi:arg1="-1.5707963"
     sodipodi:arg2="-0.52359878"
     inkscape:flatsided="true"
     inkscape:rounded="0"
     inkscape:randomized="0"
     d="m -263.69595,-157.94348 14.74337,25.53628 -29.48675,0 z"
     inkscape:transform-center-y="4.2560411"
     transform="scale(-1)" />
  <path
     inkscape:transform-center-x="-2.8482118e-06"
     inkscape:transform-center-y="4.2560411"
     d="m -305.22388,-157.94348 14.74338,25.53628 -29.48675,0 z"
     inkscape:randomized="0"
     inkscape:rounded="0"
     inkscape:flatsided="true"
     sodipodi:arg2="-0.52359878"
     sodipodi:arg1="-1.5707963"
     sodipodi:r2="8.5120926"
     sodipodi:r1="17.024185"
     sodipodi:cy="-140.9193"
     sodipodi:cx="-305.22388"
     sodipodi:sides="3"
     id="path1704"
     style="opacity:1;fill:none;fill-opacity:1;stroke:#000000;stroke-width:1.90933073;stroke-miterlimit:4;stroke-dasharray:none;stroke-opacity:1"
     sodipodi:type="star"
     transform="scale(-1)" />
  <path
     inkscape:transform-center-x="2.2207843e-05"
     sodipodi:type="star"
     style="opacity:1;fill:none;fill-opacity:1;stroke:#000000;stroke-width:1.90933073;stroke-miterlimit:4;stroke-dasharray:none;stroke-opacity:1"
     id="path1706"
     sodipodi:sides="3"
     sodipodi:cx="-284.10794"
     sodipodi:cy="-173.29701"
     sodipodi:r1="17.024185"
     sodipodi:r2="8.5120926"
     sodipodi:arg1="-1.5707963"
     sodipodi:arg2="-0.52359878"
     inkscape:flatsided="true"
     inkscape:rounded="0"
     inkscape:randomized="0"
     d="m -284.10794,-190.3212 14.74338,25.53628 -29.48676,0 z"
     inkscape:transform-center-y="4.2560401"
     transform="scale(-1)" />
  <path
     style="display:inline;fill:#ffffff;fill-opacity:1;stroke:#000000;stroke-width:2.00744939;stroke-miterlimit:4;stroke-dasharray:none;stroke-opacity:1"
     d="m 66.161409,154.23055 h 35.838871 c 0,0 0,0 0,0 0,0 0,0 0,0 l 16.1712,17.91943 -16.1712,17.91943 c 0,0 0,0 0,0 0,0 0,0 0,0 H 66.161409 c 0,0 0,0 0,0 -4e-6,0 -4e-6,0 -4e-6,0 L 49.116089,172.14998 66.161405,154.23055 c 0,0 0,0 0,0 4e-6,0 4e-6,0 4e-6,0 z"
     id="rect835"
     inkscape:connector-curvature="0"
     sodipodi:nodetypes="ccsscssccsscssc" />
  <path
     sodipodi:nodetypes="ccsscssccsscssc"
     inkscape:connector-curvature="0"
     id="path838"
     d="m 143.00479,154.23055 h 35.83887 c 0,0 0,0 0,0 0,0 0,0 0,0 l 16.1712,17.91943 -16.1712,17.91943 c 0,0 0,0 0,0 0,0 0,0 0,0 h -35.83887 c 0,0 0,0 0,0 0,0 0,0 0,0 l -17.04531,-17.91943 17.04531,-17.91943 c 0,0 0,0 0,0 0,0 0,0 0,0 z"
     style="display:inline;fill:#ffffff;fill-opacity:1;stroke:#000000;stroke-width:2.00744939;stroke-miterlimit:4;stroke-dasharray:none;stroke-opacity:1" />
  <path
     sodipodi:nodetypes="ccsscssccsscssc"
     inkscape:connector-curvature="0"
     id="path840"
     d="m 60.470848,112.26406 v 35.83887 c 0,0 0,0 0,0 0,1e-5 0,1e-5 -4e-6,1e-5 L 42.551416,164.27413 24.631987,148.10294 c 0,0 -9e-6,0 -9e-6,-1e-5 0,0 0,0 0,0 v -35.83887 c 0,0 0,0 0,0 0,0 9e-6,0 9e-6,0 L 42.551416,95.218743 60.470844,112.26406 c 0,0 4e-6,0 4e-6,0 0,0 0,0 0,0 z"
     style="display:inline;fill:#ffffff;fill-opacity:1;stroke:#000000;stroke-width:2.00744939;stroke-miterlimit:4;stroke-dasharray:none;stroke-opacity:1" />
  <path
     style="display:inline;fill:#ffffff;fill-opacity:1;stroke:#000000;stroke-width:2.00744939;stroke-miterlimit:4;stroke-dasharray:none;stroke-opacity:1"
     d="m 60.907909,197.49065 v 35.83885 c 0,0 0,0 0,0 0,1e-5 0,1e-5 -4e-6,1e-5 L 42.98848,249.5007 25.069042,233.32951 c 0,0 -9e-6,0 -9e-6,-1e-5 0,0 0,0 0,0 v -35.83885 c 0,0 0,0 0,0 0,-10e-6 9e-6,-10e-6 9e-6,-10e-6 l 17.919438,-17.04532 17.919425,17.04532 c 0,0 4e-6,0 4e-6,0 0,10e-6 0,10e-6 0,10e-6 z"
     id="path842"
     inkscape:connector-curvature="0"
     sodipodi:nodetypes="ccsscssccsscssc" />
  <path
     style="display:inline;fill:#ffffff;fill-opacity:1;stroke:#000000;stroke-width:2.00744939;stroke-miterlimit:4;stroke-dasharray:none;stroke-opacity:1"
     d="m 220.87163,111.82701 v 35.83886 c 0,0 0,0 0,0 0,0 0,0 0,0 l -17.91942,16.17121 -17.91943,-16.17121 c 0,0 -1e-5,0 -1e-5,0 0,0 0,0 0,0 v -35.83886 c 0,0 0,0 0,0 0,0 1e-5,0 1e-5,0 l 17.91943,-17.045326 17.91942,17.045326 c 0,0 0,0 0,0 0,0 0,0 0,0 z"
     id="path844"
     inkscape:connector-curvature="0"
     sodipodi:nodetypes="ccsscssccsscssc" />
  <path
     sodipodi:nodetypes="ccsscssccsscssc"
     inkscape:connector-curvature="0"
     id="path846"
     d="m 221.30869,197.05358 v 35.83887 c 0,0 0,0 0,0 0,0 0,0 0,0 l -17.91943,16.1712 -17.91943,-16.1712 c 0,0 -1e-5,0 -1e-5,0 0,0 0,0 0,0 v -35.83887 c 0,0 0,0 0,0 0,0 1e-5,0 1e-5,0 l 17.91943,-17.04531 17.91943,17.04531 c 0,0 0,0 0,0 0,0 0,0 0,0 z"
     style="display:inline;fill:#ffffff;fill-opacity:1;stroke:#000000;stroke-width:2.00744939;stroke-miterlimit:4;stroke-dasharray:none;stroke-opacity:1" />
  <path
     sodipodi:nodetypes="ccsscssccsscssc"
     inkscape:connector-curvature="0"
     id="path848"
     d="M 67.035531,68.566908 H 178.48566 v 0 c 0,0 0,4e-6 1e-5,4e-6 l 16.17119,17.919429 -16.17119,17.919439 h -1e-5 v 0 H 67.035531 v 0 c -5e-6,0 -5e-6,0 -5e-6,0 L 49.990207,86.486341 67.035526,68.566912 v -4e-6 z"
     style="display:inline;fill:#ffffff;fill-opacity:1;stroke:#000000;stroke-width:2.00744939;stroke-miterlimit:4;stroke-dasharray:none;stroke-opacity:1" />
  <path
     style="display:inline;fill:#ffffff;fill-opacity:1;stroke:#000000;stroke-width:2.00744939;stroke-miterlimit:4;stroke-dasharray:none;stroke-opacity:1"
     d="M 67.909652,239.94689 H 179.35979 v 0 c 0,0 0,0 0,1e-5 l 16.17119,17.91944 -16.17119,17.91942 v 0 0 H 67.909652 v 0 c -5e-6,0 -5e-6,0 -5e-6,0 L 50.864326,257.86634 67.909647,239.9469 v -1e-5 z"
     id="path850"
     inkscape:connector-curvature="0"
     sodipodi:nodetypes="ccsscssccsscssc" />
  <path
     sodipodi:nodetypes="ccsscssccsccc"
     inkscape:connector-curvature="0"
     id="path852"
     d="m 139.92781,110.50703 v 35.83887 0 c 0,1e-5 0,1e-5 -1e-5,1e-5 l -17.91942,16.17119 -17.91943,-16.17119 c 0,0 0,0 0,-1e-5 v 0 -35.83887 0 c 0,0 0,0 0,0 35.83886,0 0,0 35.83886,0 z"
     style="display:inline;fill:#ffffff;fill-opacity:1;stroke:#000000;stroke-width:2.00744939;stroke-miterlimit:4;stroke-dasharray:none;stroke-opacity:1" />
  <path
     style="display:inline;fill:#ffffff;fill-opacity:1;stroke:#000000;stroke-width:2.00744939;stroke-miterlimit:4;stroke-dasharray:none;stroke-opacity:1"
     d="m 104.98062,232.91879 v -35.83885 0 c 0,-1e-5 0,-1e-5 0,-1e-5 l 17.91943,-16.1712 17.91944,16.1712 c 0,0 0,0 0,1e-5 v 0 35.83885 0 c 0,0 0,0 0,0 -35.83887,0 0,0 -35.83887,0 z"
     id="path854"
     inkscape:connector-curvature="0"
     sodipodi:nodetypes="ccsscssccsccc" />
  <path
     style="display:inline;fill:#ffffff;fill-opacity:1;stroke:#000000;stroke-width:2.00744939;stroke-miterlimit:4;stroke-dasharray:none;stroke-opacity:1"
     d="m 91.924389,111.41789 6.985409,10.91895 v 0 c 4e-6,0 4e-6,0 0,1e-5 l -0.06556,25.32024 -25.276333,0.0217 c 0,0 -4e-6,0 -9e-6,0 v 0 l -6.985408,-10.91896 v 0 -1e-5 l 0.618096,-24.72381 24.723808,-0.61809 h 4e-6 z"
     id="path856"
     inkscape:connector-curvature="0"
     sodipodi:nodetypes="ccsscssccsscssc" />
  <path
     sodipodi:nodetypes="ccsscssccsscssc"
     inkscape:connector-curvature="0"
     id="path858"
     d="m 171.46919,196.64447 6.98541,10.91894 v 0 c 1e-5,0 1e-5,0 0,1e-5 l -0.0656,25.32024 -25.27633,0.0217 c 0,0 0,1e-5 -1e-5,0 v 0 l -6.9854,-10.919 v 0 -1e-5 l 0.61809,-24.72379 24.72382,-0.6181 v -1e-5 z"
     style="display:inline;fill:#ffffff;fill-opacity:1;stroke:#000000;stroke-width:2.00744939;stroke-miterlimit:4;stroke-dasharray:none;stroke-opacity:1" />
  <path
     style="display:inline;fill:#ffffff;fill-opacity:1;stroke:#000000;stroke-width:2.00744939;stroke-miterlimit:4;stroke-dasharray:none;stroke-opacity:1"
     d="m 91.923711,232.91412 6.985406,-10.91895 v 0 c 5e-6,0 5e-6,0 0,0 l -0.06556,-25.32024 -25.276333,-0.0217 c 0,0 -4e-6,0 -9e-6,0 v 0 l -6.985409,10.91896 v 0 1e-5 l 0.618096,24.72382 24.72381,0.61808 h 4e-6 z"
     id="path860"
     inkscape:connector-curvature="0"
     sodipodi:nodetypes="ccsscssccsscssc" />
  <path
     sodipodi:nodetypes="ccsscssccsscssc"
     inkscape:connector-curvature="0"
     id="path862"
     d="m 170.59439,147.67877 6.98541,-10.91896 v 0 c 1e-5,0 1e-5,0 0,0 l -0.0655,-25.32023 -25.27634,-0.0217 c 0,0 -10e-6,0 -10e-6,0 v 0 l -6.98541,10.91896 v 0 1e-5 l 0.61809,24.7238 24.72382,0.6181 v 0 z"
     style="display:inline;fill:#ffffff;fill-opacity:1;stroke:#000000;stroke-width:2.00744939;stroke-miterlimit:4;stroke-dasharray:none;stroke-opacity:1" />
  <path
     sodipodi:nodetypes="ccsscssccsscssc"
     inkscape:connector-curvature="0"
     id="path840-5"
     d="m 252.18641,286.29442 v 4.14808 c 0,0 0,0 0,0 0,0 0,0 0,0 l -2.07403,1.8717 -2.07404,-1.8717 c 0,0 0,0 0,0 0,0 0,0 0,0 v -4.14808 c 0,0 0,0 0,0 0,0 0,0 0,0 l 2.07404,-1.97286 2.07403,1.97286 c 0,0 0,0 0,0 0,0 0,0 0,0 z"
     style="display:inline;fill:#ffffff;fill-opacity:1;stroke:#000000;stroke-width:1.79468346;stroke-miterlimit:4;stroke-dasharray:none;stroke-opacity:1" />
  <path
     style="display:inline;fill:#ffffff;fill-opacity:1;stroke:#000000;stroke-width:1.79468346;stroke-miterlimit:4;stroke-dasharray:none;stroke-opacity:1"
     d="m 252.237,296.15875 v 4.14808 c 0,0 0,0 0,0 0,0 0,0 0,0 l -2.07404,1.87169 -2.07404,-1.87169 c 0,0 0,0 0,0 0,0 0,0 0,0 v -4.14808 c 0,0 0,0 0,0 0,0 0,0 0,0 l 2.07404,-1.97287 2.07404,1.97287 c 0,0 0,0 0,0 0,0 0,0 0,0 z"
     id="path842-2"
     inkscape:connector-curvature="0"
     sodipodi:nodetypes="ccsscssccsscssc" />
  <path
     style="display:inline;fill:#ffffff;fill-opacity:1;stroke:#000000;stroke-width:1.79468346;stroke-miterlimit:4;stroke-dasharray:none;stroke-opacity:1"
     d="m 270.7516,286.24383 v 4.14808 c 0,0 0,0 0,0 0,0 0,0 0,0 l -2.07404,1.8717 -2.07404,-1.8717 c 0,0 0,0 0,0 0,0 0,0 0,0 v -4.14808 c 0,0 0,0 0,0 0,0 0,0 0,0 l 2.07404,-1.97286 2.07404,1.97286 c 0,0 0,0 0,0 0,0 0,0 0,0 z"
     id="path844-2"
     inkscape:connector-curvature="0"
     sodipodi:nodetypes="ccsscssccsscssc" />
  <path
     sodipodi:nodetypes="ccsscssccsscssc"
     inkscape:connector-curvature="0"
     id="path846-0"
     d="m 270.80218,296.10817 v 4.14808 c 0,0 0,0 0,0 0,0 0,0 0,0 l -2.07404,1.87169 -2.07403,-1.87169 c 0,0 0,0 0,0 0,0 0,0 0,0 v -4.14808 c 0,0 0,0 0,0 0,0 0,0 0,0 l 2.07403,-1.97287 2.07404,1.97287 c 0,0 0,0 0,0 0,0 0,0 0,0 z"
     style="display:inline;fill:#ffffff;fill-opacity:1;stroke:#000000;stroke-width:1.79468346;stroke-miterlimit:4;stroke-dasharray:none;stroke-opacity:1" />
  <path
     sodipodi:nodetypes="ccsscssccsscssc"
     inkscape:connector-curvature="0"
     id="path848-9"
     d="m 252.94623,281.2368 h 12.89951 v 0 c 0,0 0,0 0,0 l 1.8717,2.07405 -1.8717,2.07404 v 0 0 h -12.89951 v 0 c 0,0 0,0 0,0 l -1.97286,-2.07404 z"
     style="display:inline;fill:#ffffff;fill-opacity:1;stroke:#000000;stroke-width:1.79468346;stroke-miterlimit:4;stroke-dasharray:none;stroke-opacity:1" />
  <path
     style="display:inline;fill:#ffffff;fill-opacity:1;stroke:#000000;stroke-width:1.79468346;stroke-miterlimit:4;stroke-dasharray:none;stroke-opacity:1"
     d="m 253.0474,301.07274 h 12.89951 v 0 c 0,0 0,0 0,10e-6 l 1.8717,2.07403 -1.8717,2.07405 v 0 0 H 253.0474 v 0 c 0,0 0,0 0,0 l -1.97287,-2.07405 1.97287,-2.07403 z"
     id="path850-1"
     inkscape:connector-curvature="0"
     sodipodi:nodetypes="ccsscssccsscssc" />
  <path
     style="display:inline;fill:#ffffff;fill-opacity:1;stroke:#000000;stroke-width:1.79468346;stroke-miterlimit:4;stroke-dasharray:none;stroke-opacity:1"
     d="m 255.82685,300.25875 0.80851,-1.26378 v 0 c 0,0 0,0 0,0 l -0.007,-2.93063 -2.92554,-0.003 c 0,0 0,0 0,0 v 0 l -0.8085,1.26379 v 0 0 l 0.0715,2.86159 2.8616,0.0715 v 0 z"
     id="path860-5"
     inkscape:connector-curvature="0"
     sodipodi:nodetypes="ccsscssccsscssc" />
  <path
     sodipodi:nodetypes="ccsscssccsscssc"
     inkscape:connector-curvature="0"
     id="path862-0"
     d="m 264.93238,290.3934 0.80851,-1.26379 v 0 c 0,0 0,0 0,0 l -0.007,-2.93062 -2.92555,-0.003 c 0,0 0,0 0,0 v 0 l -0.8085,1.26379 v 0 0 l 0.0715,2.8616 2.86159,0.0715 v 0 z"
     style="display:inline;fill:#ffffff;fill-opacity:1;stroke:#000000;stroke-width:1.79468346;stroke-miterlimit:4;stroke-dasharray:none;stroke-opacity:1" />
  <path
     style="display:inline;fill:#ffffff;fill-opacity:1;stroke:#000000;stroke-width:1.79468346;stroke-miterlimit:4;stroke-dasharray:none;stroke-opacity:1"
     d="m 277.31198,286.29442 v 4.14808 c 0,0 0,0 0,0 0,0 0,0 0,0 l -2.07404,1.8717 -2.07403,-1.8717 c 0,0 0,0 0,0 0,0 0,0 0,0 v -4.14808 c 0,0 0,0 0,0 0,0 0,0 0,0 l 2.07403,-1.97286 2.07404,1.97286 c 0,0 0,0 0,0 0,0 0,0 0,0 z"
     id="path2651"
     inkscape:connector-curvature="0"
     sodipodi:nodetypes="ccsscssccsscssc" />
  <path
     sodipodi:nodetypes="ccsscssccsscssc"
     inkscape:connector-curvature="0"
     id="path2653"
     d="m 277.36257,296.15875 v 4.14808 c 0,0 0,0 0,0 0,0 0,0 0,0 l -2.07404,1.87169 -2.07404,-1.87169 c 0,0 0,0 0,0 0,0 0,0 0,0 v -4.14808 c 0,0 0,0 0,0 0,0 0,0 0,0 l 2.07404,-1.97287 2.07404,1.97287 c 0,0 0,0 0,0 0,0 0,0 0,0 z"
     style="display:inline;fill:#ffffff;fill-opacity:1;stroke:#000000;stroke-width:1.79468346;stroke-miterlimit:4;stroke-dasharray:none;stroke-opacity:1" />
  <path
     sodipodi:nodetypes="ccsscssccsscssc"
     inkscape:connector-curvature="0"
     id="path2655"
     d="m 295.87716,286.24383 v 4.14808 c 0,0 0,0 0,0 0,0 0,0 0,0 l -2.07403,1.8717 -2.07405,-1.8717 c 0,0 0,0 0,0 0,0 0,0 0,0 v -4.14808 c 0,0 0,0 0,0 0,0 0,0 0,0 l 2.07405,-1.97286 2.07403,1.97286 c 0,0 0,0 0,0 0,0 0,0 0,0 z"
     style="display:inline;fill:#ffffff;fill-opacity:1;stroke:#000000;stroke-width:1.79468346;stroke-miterlimit:4;stroke-dasharray:none;stroke-opacity:1" />
  <path
     style="display:inline;fill:#ffffff;fill-opacity:1;stroke:#000000;stroke-width:1.79468346;stroke-miterlimit:4;stroke-dasharray:none;stroke-opacity:1"
     d="m 295.92775,296.10817 v 4.14808 c 0,0 0,0 0,0 0,0 0,0 0,0 l -2.07404,1.87169 -2.07403,-1.87169 c 0,0 0,0 0,0 0,0 0,0 0,0 v -4.14808 c 0,0 0,0 0,0 0,0 0,0 0,0 l 2.07403,-1.97287 2.07404,1.97287 c 0,0 0,0 0,0 0,0 0,0 0,0 z"
     id="path2657"
     inkscape:connector-curvature="0"
     sodipodi:nodetypes="ccsscssccsscssc" />
  <path
     style="display:inline;fill:#ffffff;fill-opacity:1;stroke:#000000;stroke-width:1.79468346;stroke-miterlimit:4;stroke-dasharray:none;stroke-opacity:1"
     d="m 278.07179,281.2368 h 12.89952 v 0 c 0,0 0,0 0,0 l 1.8717,2.07405 -1.8717,2.07404 v 0 0 h -12.89952 v 0 c 0,0 0,0 0,0 l -1.97285,-2.07404 z"
     id="path2659"
     inkscape:connector-curvature="0"
     sodipodi:nodetypes="ccsscssccsscssc" />
  <path
     sodipodi:nodetypes="ccsscssccsscssc"
     inkscape:connector-curvature="0"
     id="path2661"
     d="m 278.17297,301.07274 h 12.89951 v 0 c 0,0 0,0 0,10e-6 l 1.8717,2.07403 -1.8717,2.07405 v 0 0 h -12.89951 v 0 c 0,0 0,0 0,0 l -1.97287,-2.07405 1.97287,-2.07403 z"
     style="display:inline;fill:#ffffff;fill-opacity:1;stroke:#000000;stroke-width:1.79468346;stroke-miterlimit:4;stroke-dasharray:none;stroke-opacity:1" />
  <path
     sodipodi:nodetypes="ccsscssccsscssc"
     inkscape:connector-curvature="0"
     id="path2663"
     d="m 280.95241,300.25875 0.80852,-1.26378 v 0 c 0,0 0,0 0,0 l -0.007,-2.93063 -2.92554,-0.003 c 0,0 0,0 0,0 v 0 l -0.80851,1.26379 v 0 0 l 0.0715,2.86159 2.8616,0.0715 v 0 z"
     style="display:inline;fill:#ffffff;fill-opacity:1;stroke:#000000;stroke-width:1.79468346;stroke-miterlimit:4;stroke-dasharray:none;stroke-opacity:1" />
  <path
     style="display:inline;fill:#ffffff;fill-opacity:1;stroke:#000000;stroke-width:1.79468346;stroke-miterlimit:4;stroke-dasharray:none;stroke-opacity:1"
     d="m 290.05795,290.3934 0.80851,-1.26379 v 0 c 0,0 0,0 0,0 l -0.007,-2.93062 -2.92555,-0.003 c 0,0 0,0 0,0 v 0 l -0.8085,1.26379 v 0 0 l 0.0715,2.8616 2.86159,0.0715 v 0 z"
     id="path2665"
     inkscape:connector-curvature="0"
     sodipodi:nodetypes="ccsscssccsscssc" />
  <path
     sodipodi:nodetypes="ccsscssccsscssc"
     inkscape:connector-curvature="0"
     id="path2667"
     d="m 302.43755,286.29442 v 4.14808 c 0,0 0,0 0,0 0,0 0,0 0,0 l -2.07404,1.8717 -2.07403,-1.8717 c 0,0 0,0 0,0 0,0 0,0 0,0 v -4.14808 c 0,0 0,0 0,0 0,0 0,0 0,0 l 2.07403,-1.97286 2.07404,1.97286 c 0,0 0,0 0,0 0,0 0,0 0,0 z"
     style="display:inline;fill:#ffffff;fill-opacity:1;stroke:#000000;stroke-width:1.79468346;stroke-miterlimit:4;stroke-dasharray:none;stroke-opacity:1" />
  <path
     style="display:inline;fill:#ffffff;fill-opacity:1;stroke:#000000;stroke-width:1.79468346;stroke-miterlimit:4;stroke-dasharray:none;stroke-opacity:1"
     d="m 302.48814,296.15875 v 4.14808 c 0,0 0,0 0,0 0,0 0,0 0,0 l -2.07404,1.87169 -2.07404,-1.87169 c 0,0 0,0 0,0 0,0 0,0 0,0 v -4.14808 c 0,0 0,0 0,0 0,0 0,0 0,0 l 2.07404,-1.97287 2.07404,1.97287 c 0,0 0,0 0,0 0,0 0,0 0,0 z"
     id="path2669"
     inkscape:connector-curvature="0"
     sodipodi:nodetypes="ccsscssccsscssc" />
  <path
     style="display:inline;fill:#ffffff;fill-opacity:1;stroke:#000000;stroke-width:1.79468346;stroke-miterlimit:4;stroke-dasharray:none;stroke-opacity:1"
     d="m 321.00273,286.24383 v 4.14808 c 0,0 0,0 0,0 0,0 0,0 0,0 l -2.07403,1.8717 -2.07405,-1.8717 c 0,0 0,0 0,0 0,0 0,0 0,0 v -4.14808 c 0,0 0,0 0,0 0,0 0,0 0,0 l 2.07405,-1.97286 2.07403,1.97286 c 0,0 0,0 0,0 0,0 0,0 0,0 z"
     id="path2671"
     inkscape:connector-curvature="0"
     sodipodi:nodetypes="ccsscssccsscssc" />
  <path
     sodipodi:nodetypes="ccsscssccsscssc"
     inkscape:connector-curvature="0"
     id="path2673"
     d="m 321.05332,296.10817 v 4.14808 c 0,0 0,0 0,0 0,0 0,0 0,0 l -2.07404,1.87169 -2.07403,-1.87169 c 0,0 0,0 0,0 0,0 0,0 0,0 v -4.14808 c 0,0 0,0 0,0 0,0 0,0 0,0 l 2.07403,-1.97287 2.07404,1.97287 c 0,0 0,0 0,0 0,0 0,0 0,0 z"
     style="display:inline;fill:#ffffff;fill-opacity:1;stroke:#000000;stroke-width:1.79468346;stroke-miterlimit:4;stroke-dasharray:none;stroke-opacity:1" />
  <path
     sodipodi:nodetypes="ccsscssccsscssc"
     inkscape:connector-curvature="0"
     id="path2675"
     d="m 303.19736,281.2368 h 12.89951 v 0 c 0,0 0,0 0,0 l 1.87171,2.07405 -1.87171,2.07404 v 0 0 h -12.89951 v 0 c 0,0 0,0 0,0 l -1.97286,-2.07404 z"
     style="display:inline;fill:#ffffff;fill-opacity:1;stroke:#000000;stroke-width:1.79468346;stroke-miterlimit:4;stroke-dasharray:none;stroke-opacity:1" />
  <path
     style="display:inline;fill:#ffffff;fill-opacity:1;stroke:#000000;stroke-width:1.79468346;stroke-miterlimit:4;stroke-dasharray:none;stroke-opacity:1"
     d="m 303.29854,301.07274 h 12.89951 v 0 c 0,0 0,0 0,10e-6 l 1.87169,2.07403 -1.87169,2.07405 v 0 0 h -12.89951 v 0 c 0,0 0,0 0,0 l -1.97287,-2.07405 1.97287,-2.07403 z"
     id="path2677"
     inkscape:connector-curvature="0"
     sodipodi:nodetypes="ccsscssccsscssc" />
  <path
     style="display:inline;fill:#ffffff;fill-opacity:1;stroke:#000000;stroke-width:1.79468346;stroke-miterlimit:4;stroke-dasharray:none;stroke-opacity:1"
     d="m 306.07798,300.25875 0.80852,-1.26378 v 0 c 0,0 0,0 0,0 l -0.007,-2.93063 -2.92554,-0.003 c 0,0 0,0 0,0 v 0 l -0.80851,1.26379 v 0 0 l 0.0715,2.86159 2.8616,0.0715 v 0 z"
     id="path2679"
     inkscape:connector-curvature="0"
     sodipodi:nodetypes="ccsscssccsscssc" />
  <path
     sodipodi:nodetypes="ccsscssccsscssc"
     inkscape:connector-curvature="0"
     id="path2681"
     d="m 315.18352,290.3934 0.80851,-1.26379 v 0 c 0,0 0,0 0,0 l -0.007,-2.93062 -2.92555,-0.003 c 0,0 0,0 0,0 v 0 l -0.8085,1.26379 v 0 0 l 0.0715,2.8616 2.8616,0.0715 v 0 z"
     style="display:inline;fill:#ffffff;fill-opacity:1;stroke:#000000;stroke-width:1.79468346;stroke-miterlimit:4;stroke-dasharray:none;stroke-opacity:1" />
</svg>
